<?xml version="1.0" encoding="utf-8"?>
<!-- Generator: Adobe Illustrator 24.1.2, SVG Export Plug-In . SVG Version: 6.00 Build 0)  -->
<svg version="1.1" id="Layer_1" xmlns="http://www.w3.org/2000/svg" xmlns:xlink="http://www.w3.org/1999/xlink" x="0px" y="0px"
	 viewBox="0 0 1920 1080" style="enable-background:new 0 0 1920 1080;" xml:space="preserve">
<style type="text/css">
	.st0{fill:#8100BE;}
</style>
<g>
	<g>
		<path class="st0" d="M1017.2,540.4c0,21.9-23.3,39.7-52,39.7c-28.7,0-52-17.8-52-39.7s23.3-39.7,52-39.7
			C993.9,500.7,1017.2,518.5,1017.2,540.4z"/>
		<g>
			<path class="st0" d="M1614.7,573.6c13.8,13.5,25.2,9.2,25.2-9.5v-47.5c0-18.7-10.9-22.9-24.3-9.3c-13.4,13.6-44.3,24.7-68.9,24.7
				h-419.5c-24.5,0-55.5-11.1-68.9-24.7c-13.4-13.6-24.3-9.4-24.3,9.3v47.5c0,18.7,11.3,23,25.2,9.5c13.8-13.5,45.2-24.6,69.8-24.6
				h415.9C1569.4,549.1,1600.8,560.1,1614.7,573.6z"/>
			<path class="st0" d="M1757.9,630.3c0,0-120.9-23-112.5-88.2C1734.4,555.8,1757.8,621.4,1757.9,630.3z"/>
			<path class="st0" d="M1757.9,450.6c0,0-120.9,23-112.5,88.2C1734.4,525,1757.8,459.5,1757.9,450.6z"/>
			<path class="st0" d="M1774.3,518.4c-44.5,0-80.6,23.9-80.6,23.9s36.1,23.9,80.6,23.9c44.5,0,80.6-23.9,80.6-23.9
				S1818.9,518.4,1774.3,518.4z"/>
		</g>
		<g>
			<path class="st0" d="M315.7,573.6c-13.8,13.5-25.2,9.2-25.2-9.5v-47.5c0-18.7,10.9-22.9,24.3-9.3c13.4,13.6,44.3,24.7,68.9,24.7
				h419.5c24.5,0,55.5-11.1,68.9-24.7c13.4-13.6,24.3-9.4,24.3,9.3v47.5c0,18.7-11.3,23-25.2,9.5c-13.8-13.5-45.2-24.6-69.8-24.6
				H385.5C361,549.1,329.6,560.1,315.7,573.6z"/>
			<path class="st0" d="M161.5,630.3c0,0,120.9-23,112.5-88.2C185,555.8,161.6,621.4,161.5,630.3z"/>
			<path class="st0" d="M161.5,450.6c0,0,120.9,23,112.5,88.2C185,525,161.6,459.5,161.5,450.6z"/>
			<path class="st0" d="M145.1,518.4c44.5,0,80.6,23.9,80.6,23.9s-36.1,23.9-80.6,23.9c-44.5,0-80.6-23.9-80.6-23.9
				S100.6,518.4,145.1,518.4z"/>
		</g>
	</g>
</g>
</svg>
